<svg xmlns="http://www.w3.org/2000/svg" viewBox="0 0 256 256" role="img" aria-label="JavaScript logo">
  <title>JavaScript</title>
  <!-- Fondo amarillo -->
  <rect width="256" height="256" fill="#F7DF1E"/>
  <!-- Texto JS -->
  <path d="M67 214l19-11c3.6 6.4 6.9 11.8 14.8 11.8 7.6 0 12.4-3 12.4-14.7v-79.4h23v79.6c0 23.8-14 34.6-34.4 34.6-18.4 0-29.1-9.5-34.8-20.9M152 212.3l19-11c5 8.1 11.5 14 23 14 9.7 0 15.9-4.8 15.9-11.5 0-8-6.3-10.9-17-15.6l-5.8-2.5c-16.7-7.1-27.8-16-27.8-34.8 0-17.3 13.2-30.5 33.8-30.5 14.7 0 25.3 5.1 32.9 18.4l-18 11.6c-3.9-7.1-8.1-9.9-14.8-9.9-6.7 0-11 4.3-11 9.9 0 6.9 4.3 9.8 14.3 14l5.8 2.5c19.7 8.5 30.8 17 30.8 36.3 0 20.8-16.3 32.2-38.2 32.2-21.4 0-35.3-10.2-42-23.6" fill="#000"/>
</svg>


