<svg xmlns="http://www.w3.org/2000/svg" viewBox="0 0 256 256" role="img" aria-label="Power BI (estilo)">
  <title>Power BI</title>
  <!-- Fondo amarillo característico -->
  <rect x="8" y="20" width="240" height="216" rx="28" fill="#F2C811"/>
  <!-- Barras (negras) -->
  <g fill="#111">
    <rect x="58" y="140" width="24" height="56" rx="6"/>
    <rect x="98" y="116" width="24" height="80" rx="6"/>
    <rect x="138" y="88"  width="24" height="108" rx="6"/>
  </g>
  <!-- Contorno curvo característico -->
  <path fill="#111" d="M202 74c11 0 20 9 20 20v68c0 11-9 20-20 20h-20c-6 0-10-4-10-10s4-10 10-10h16c3 0 6-3 6-6v-56c0-3-3-6-6-6h-16c-6 0-10-4-10-10s4-10 10-10h20z"/>
</svg>



